<svg width="154" height="154" viewBox="0 0 154 154" fill="none" xmlns="http://www.w3.org/2000/svg">
<path fill-rule="evenodd" clip-rule="evenodd" d="M77 8.02084C65.2704 8.02084 55.5748 9.05392 48.1122 10.3116L47.2524 10.4592C40.7715 11.5436 35.3815 12.4483 31.1658 17.633C28.4708 20.9633 27.5917 24.563 27.3928 28.5734L24.2358 29.6258C21.2649 30.6139 18.6533 31.4866 16.5935 32.4491C14.3605 33.4886 12.3136 34.8232 10.748 36.9985C9.18229 39.1673 8.55987 41.5351 8.27754 43.9798C8.02087 46.2449 8.02087 48.9848 8.02087 52.1226V53.053C8.02087 55.6325 8.02087 57.9104 8.21337 59.8162C8.41871 61.8759 8.87429 63.8843 10.01 65.8222C11.1586 67.7664 12.6858 69.1396 14.3926 70.3202C15.9647 71.4111 17.9539 72.5212 20.2125 73.7724L37.1525 83.1857C40.6175 89.9938 45.3723 96.0639 51.9109 100.447C57.6025 104.271 64.4362 106.671 72.5276 107.306C72.3026 107.871 72.1872 108.475 72.1875 109.083V120.313H63.0117C60.4156 120.313 57.8998 121.212 55.8922 122.858C53.8847 124.504 52.5095 126.795 52.0007 129.341L50.5955 136.354H38.5C37.2237 136.354 35.9996 136.861 35.0971 137.764C34.1946 138.666 33.6875 139.89 33.6875 141.167C33.6875 142.443 34.1946 143.667 35.0971 144.57C35.9996 145.472 37.2237 145.979 38.5 145.979H115.5C116.776 145.979 118 145.472 118.903 144.57C119.806 143.667 120.313 142.443 120.313 141.167C120.313 139.89 119.806 138.666 118.903 137.764C118 136.861 116.776 136.354 115.5 136.354H103.405L101.999 129.341C101.491 126.795 100.115 124.504 98.1078 122.858C96.1003 121.212 93.5844 120.313 90.9884 120.313H81.8125V109.083C81.8129 108.475 81.6975 107.871 81.4725 107.306C89.5639 106.664 96.3976 104.271 102.089 100.453C108.634 96.0639 113.383 89.9938 116.848 83.1857L133.788 73.7724C136.046 72.5212 138.035 71.4111 139.607 70.3202C141.308 69.1396 142.841 67.7664 143.984 65.8286C145.126 63.8843 145.588 61.8759 145.787 59.8162C145.979 57.9104 145.979 55.6325 145.979 53.053V52.1226C145.979 48.9913 145.979 46.2449 145.723 43.9798C145.44 41.5351 144.824 39.1673 143.252 36.9985C141.686 34.8232 139.64 33.4886 137.413 32.4427C135.34 31.4802 132.735 30.6139 129.764 29.6258L126.607 28.5734C126.415 24.5566 125.536 20.9633 122.834 17.633C118.625 12.4419 113.235 11.5372 106.754 10.4592L105.888 10.3116C96.339 8.74624 86.6763 7.98 77 8.02084ZM93.5871 136.354L92.5605 131.227C92.4878 130.864 92.2915 130.537 92.0049 130.301C91.7183 130.066 91.3591 129.938 90.9884 129.938H63.0117C62.641 129.938 62.2818 130.066 61.9952 130.301C61.7086 130.537 61.5123 130.864 61.4396 131.227L60.413 136.354H93.5871ZM27.5147 38.6797L27.6045 38.6476C28.0665 48.4009 29.1638 59.1809 31.9101 69.2551L25.07 65.4628C22.5739 64.0704 21.0082 63.1978 19.8789 62.4149C18.8394 61.6898 18.4993 61.2599 18.3132 60.9391C18.1207 60.6182 17.9154 60.1178 17.787 58.8601C17.651 56.8569 17.6039 54.8486 17.6459 52.8412V52.3728C17.6459 48.9142 17.6523 46.7262 17.8384 45.0707C18.018 43.5435 18.3004 42.9724 18.557 42.6259C18.8073 42.273 19.2565 41.8238 20.6489 41.1758C22.1632 40.4699 24.2422 39.7769 27.5147 38.6797ZM126.396 38.6412C125.94 48.3945 124.836 59.1745 122.096 69.2487L128.93 65.4564C131.426 64.064 132.992 63.1913 134.121 62.4085C135.161 61.6834 135.501 61.2535 135.687 60.9327C135.879 60.6118 136.085 60.1113 136.213 58.8537C136.348 57.4805 136.354 55.6903 136.354 52.8348V52.3664C136.354 48.9078 136.348 46.7197 136.162 45.0643C135.982 43.5371 135.7 42.966 135.443 42.6195C135.193 42.2666 134.744 41.8174 133.351 41.1693C131.837 40.4635 129.758 39.7641 126.485 38.6668L126.396 38.6412ZM49.7164 19.8018C58.7352 18.3262 67.8614 17.6051 77 17.6458C88.165 17.6458 97.3216 18.6276 104.284 19.8018C112.029 21.1108 113.652 21.5985 115.365 23.7032C117.046 25.7693 117.207 27.7328 116.86 36.4274C116.283 50.9163 114.371 66.5601 108.455 78.4566C105.529 84.3214 101.704 89.1211 96.7313 92.4578C91.784 95.7752 85.3995 97.8542 77 97.8542C68.6006 97.8542 62.2225 95.7752 57.2752 92.4578C52.2959 89.1211 48.4715 84.3214 45.552 78.4502C39.6294 66.5601 37.7236 50.9227 37.1461 36.421C36.7996 27.7328 36.9536 25.7693 38.6412 23.7032C40.348 21.5985 41.9715 21.1108 49.7164 19.8018Z" fill="black"/>
</svg>
