<svg width="36" height="36" viewBox="0 0 36 36" fill="none" xmlns="http://www.w3.org/2000/svg">
<g clip-path="url(#clip0_25_537)">
<path d="M15 8H24V10H15V8Z" fill="black"/>
<path d="M15 12H24V14H15V12Z" fill="black"/>
<path d="M15 16H24V18H15V16Z" fill="black"/>
<path d="M15 20H24V22H15V20Z" fill="black"/>
<path d="M15 24H24V26H15V24Z" fill="black"/>
<path d="M11 8H13V10H11V8Z" fill="black"/>
<path d="M11 12H13V14H11V12Z" fill="black"/>
<path d="M11 16H13V18H11V16Z" fill="black"/>
<path d="M11 20H13V22H11V20Z" fill="black"/>
<path d="M11 24H13V26H11V24Z" fill="black"/>
<path d="M28 2H8C7.46957 2 6.96086 2.21071 6.58579 2.58579C6.21071 2.96086 6 3.46957 6 4V32C6 32.5304 6.21071 33.0391 6.58579 33.4142C6.96086 33.7893 7.46957 34 8 34H28C28.5304 34 29.0391 33.7893 29.4142 33.4142C29.7893 33.0391 30 32.5304 30 32V4C30 3.46957 29.7893 2.96086 29.4142 2.58579C29.0391 2.21071 28.5304 2 28 2ZM28 32H8V4H28V32Z" fill="black"/>
</g>
<defs>
<clipPath id="clip0_25_537">
<rect width="36" height="36" fill="white"/>
</clipPath>
</defs>
</svg>
